<?xml version="1.0" encoding="utf-8"?>
<!-- Svg Vector Icons : http://www.onlinewebfonts.com/icon -->
<!DOCTYPE svg PUBLIC "-//W3C//DTD SVG 1.1//EN" "http://www.w3.org/Graphics/SVG/1.1/DTD/svg11.dtd">
<svg version="1.1" xmlns="http://www.w3.org/2000/svg" xmlns:xlink="http://www.w3.org/1999/xlink" x="0px" y="0px" viewBox="0 0 1000 1000" enable-background="new 0 0 1000 1000" xml:space="preserve">
<metadata> Svg Vector Icons : http://www.onlinewebfonts.com/icon </metadata>
<g><g><path id="WordPress" d="M10,500c0,270.6,219.4,490,490,490c270.6,0,490-219.4,490-490c0-270.6-219.4-490-490-490C229.4,10,10,229.4,10,500z M47.8,500c0-65.6,14.1-127.8,39.2-184.1l215.7,591C151.8,833.8,47.8,679,47.8,500z M500,952.2c-44.4,0-87.3-6.5-127.8-18.4L508,539.6l139,380.8c0.9,2.3,2,4.2,3.2,6.2C603.2,943.2,552.6,952.2,500,952.2z M865.5,491.5c25.8-64.5,34.4-116.1,34.4-162c0-16.7-1.1-32.1-3.1-46.5c35.3,64.5,55.4,138.3,55.4,217c0,166.9-90.4,312.5-224.8,390.8L865.5,491.5z M768,352.4c17.2,30.1,37.3,68.8,37.3,124.7c0,38.7-11.5,87.4-34.4,146.2l-45.1,150.7L562.3,288c27.3-1.5,51.7-4.3,51.7-4.3c24.4-2.9,21.5-38.6-2.8-37.3c0,0-73.3,5.8-120.6,5.8c-44.4,0-119.1-5.8-119.1-5.8c-24.4-1.3-27.2,35.9-2.9,37.3c0,0,23.1,2.8,47.5,4.3l70.4,193l-98.9,296.7L222.9,288c27.3-1.5,51.8-4.3,51.8-4.3c24.4-2.9,21.4-38.6-2.9-37.3c0,0-73.2,5.8-120.6,5.8c-8.5,0-18.4-0.2-29.1-0.5C203.1,128.9,342,47.8,500,47.8c117.7,0,224.9,45,305.4,118.8c-1.9-0.2-3.9-0.4-5.8-0.4c-44.5,0-76,38.7-76,80.2C723.6,283.7,745.1,315.2,768,352.4z"/></g><g></g><g></g><g></g><g></g><g></g><g></g><g></g><g></g><g></g><g></g><g></g><g></g><g></g><g></g><g></g></g>
</svg>