<?xml version="1.0" encoding="UTF-8" standalone="no"?>

<svg
   xmlns:dc="http://purl.org/dc/elements/1.1/"
   xmlns:cc="http://creativecommons.org/ns#"
   xmlns:rdf="http://www.w3.org/1999/02/22-rdf-syntax-ns#"
   xmlns:svg="http://www.w3.org/2000/svg"
   xmlns="http://www.w3.org/2000/svg"
   version="1.1"
   width="30"
   height="30"
   viewBox="0 0 30 30"
   id="svg2"
   style="fill:#000000">
  <metadata
     id="metadata10">
    <rdf:RDF>
      <cc:Work
         rdf:about="">
        <dc:format>image/svg+xml</dc:format>
        <dc:type
           rdf:resource="http://purl.org/dc/dcmitype/StillImage" />
        <dc:title></dc:title>
      </cc:Work>
    </rdf:RDF>
  </metadata>
  <defs
     id="defs8" />
  <path
     d="M 3.5714286,0 C 1.6074887,0 0,1.6074887 0,3.5714286 L 0,26.428571 C 0,28.392511 1.6074887,30 3.5714286,30 L 26.428571,30 C 28.392511,30 30,28.392511 30,26.428571 L 30,3.5714286 C 30,1.6074887 28.392511,0 26.428571,0 L 3.5714286,0 z m 0,1.4285724 4.7000562,0 C 5.7207074,4.0826323 4.2857136,7.5129159 4.2857136,11.071428 c 0,3.685716 1.507255,7.214175 4.22154,9.885603 0.085712,0.150001 0.1569762,0.885491 -0.171595,1.735491 -0.2071425,0.535715 -0.6215963,1.235434 -1.4215963,1.499721 -0.3071424,0.1 -0.5069199,0.401228 -0.4854912,0.722656 0.021425,0.321428 0.2577012,0.592802 0.5719862,0.657087 2.05,0.407143 3.3775117,-0.207645 4.4489397,-0.693359 0.964287,-0.442856 1.600949,-0.743193 2.579521,-0.343193 2,0.778572 4.128124,1.178852 6.328124,1.178852 2.924062,0 5.736758,-0.713764 8.214287,-2.061943 l 0,2.776229 c 0,1.191774 -0.951083,2.142856 -2.142858,2.142856 l -22.8571424,0 c -1.1917749,0 -2.1428574,-0.951082 -2.1428574,-2.142856 l 0,-22.8571434 c 0,-1.1917737 0.9510825,-2.1428562 2.1428574,-2.1428562 z m 17.1428574,6.428571 c 0.392856,0 0.714285,0.3214288 0.714285,0.714285 l 0,6.4285716 c 0,0.392857 -0.321429,0.714286 -0.714285,0.714286 C 20.321429,15.714286 20,15.392857 20,15 l 0,-6.4285716 c 0,-0.3928562 0.321429,-0.714285 0.714286,-0.714285 z m -10.7142862,0.714285 3.5714292,0 c 0.257142,0 0.500614,0.1425225 0.629185,0.3710937 0.121425,0.2214288 0.113387,0.4998325 -0.02233,0.7212612 l -2.89202,4.6219307 2.285156,0 c 0.392858,0 0.714286,0.32143 0.714286,0.714286 0,0.392857 -0.321428,0.714286 -0.714286,0.714286 l -3.5714289,0 c -0.2571425,0 -0.5006125,-0.142522 -0.629185,-0.371094 -0.12142,-0.221428 -0.1133825,-0.499832 0.02233,-0.721261 l 2.8920199,-4.6219314 -2.2851562,0 c -0.3928575,0 -0.7142862,-0.3214275 -0.7142862,-0.7142862 0,-0.3928563 0.3214287,-0.714285 0.7142862,-0.714285 z m 6.7857142,2.1428576 c 0.435715,0 0.842466,0.120875 1.206752,0.320871 0.128571,-0.185715 0.328963,-0.320871 0.578963,-0.320871 0.392857,0 0.714286,0.321429 0.714286,0.714286 l 0,3.571428 c 0,0.392857 -0.321429,0.714286 -0.714286,0.714286 -0.25,0 -0.450392,-0.135156 -0.578963,-0.32087 -0.364286,0.199999 -0.771037,0.32087 -1.206752,0.32087 -1.378571,0 -2.5,-1.121429 -2.5,-2.5 0,-1.378571 1.121429,-2.5 2.5,-2.5 z m 7.857143,0 c 1.378572,0 2.5,1.121429 2.5,2.5 0,1.378571 -1.121428,2.5 -2.5,2.5 -1.378572,0 -2.5,-1.121429 -2.5,-2.5 0,-1.378571 1.121428,-2.5 2.5,-2.5 z m -7.857143,1.428571 c -0.0741,0 -0.146414,0.0081 -0.216239,0.02233 -0.139647,0.02849 -0.26967,0.08351 -0.383649,0.160435 -0.113975,0.07693 -0.211858,0.174805 -0.288785,0.288784 -0.07692,0.113975 -0.131946,0.244001 -0.160433,0.38365 -0.01424,0.06982 -0.02233,0.142131 -0.02233,0.216239 0,0.0741 0.0081,0.146414 0.02233,0.216238 0.01424,0.06982 0.03431,0.136773 0.06139,0.200892 0.02706,0.06413 0.06059,0.125769 0.09905,0.182758 0.03846,0.05699 0.0827,0.109212 0.131139,0.157643 0.04844,0.04844 0.100662,0.09267 0.157645,0.131139 0.113975,0.07692 0.244001,0.131948 0.38365,0.160436 0.06982,0.01424 0.142132,0.02233 0.216239,0.02233 0.07411,0 0.146413,-0.0081 0.216238,-0.02233 0.48877,-0.09971 0.85519,-0.530357 0.85519,-1.049106 0,-0.592858 -0.478572,-1.07143 -1.071428,-1.07143 z m 7.857143,0 c -0.07411,0 -0.146415,0.0081 -0.216238,0.02233 -0.06982,0.01424 -0.136775,0.03433 -0.200894,0.06139 -0.06413,0.02706 -0.125766,0.06059 -0.182756,0.09905 -0.05699,0.03846 -0.109213,0.0827 -0.157645,0.131139 -0.09688,0.09688 -0.17606,0.212165 -0.230189,0.340402 -0.02706,0.06413 -0.04714,0.131069 -0.06139,0.200893 -0.01424,0.06982 -0.02233,0.142132 -0.02233,0.216239 0,0.07411 0.0081,0.146414 0.02233,0.216239 0.01424,0.06982 0.03431,0.136775 0.06139,0.200893 0.02706,0.06412 0.06059,0.125767 0.09905,0.182757 0.03846,0.05699 0.0827,0.109213 0.131139,0.157645 0.04844,0.04844 0.100662,0.09267 0.157645,0.131139 0.05699,0.03846 0.118637,0.07199 0.182756,0.09905 0.06413,0.02706 0.13107,0.04714 0.200894,0.06139 0.06983,0.01424 0.142131,0.02233 0.216238,0.02233 0.07411,0 0.146414,-0.0081 0.216239,-0.02233 0.48877,-0.09971 0.85519,-0.530356 0.85519,-1.049107 0,-0.592857 -0.478572,-1.07143 -1.071429,-1.07143 z"
     id="path4" />
</svg>
