<?xml version="1.0" encoding="utf-8"?>
<!-- Generator: Adobe Illustrator 25.2.2, SVG Export Plug-In . SVG Version: 6.00 Build 0)  -->
<svg version="1.1" id="Layer_1" xmlns="http://www.w3.org/2000/svg" xmlns:xlink="http://www.w3.org/1999/xlink" x="0px" y="0px"
	 viewBox="0 0 2165.7 279.5" style="enable-background:new 0 0 1165.7 279.5;" xml:space="preserve">
<style type="text/css">
	.st0{fill:#0C9D58;}
	.st1{opacity:0.2;fill:#004D40;enable-background:new    ;}
	.st2{opacity:0.2;fill:#FFFFFF;enable-background:new    ;}
	.st3{fill:#EA4335;}
	.st4{opacity:0.2;fill:#3E2723;enable-background:new    ;}
	.st5{fill:#FFC107;}
	.st6{fill:#4285F4;}
	.st7{fill:#FFFFFF;}
	.st8{opacity:0.2;fill:#1A237E;enable-background:new    ;}
	.st9{opacity:0.2;}
	.st10{fill:#1A237E;}
	.st11{fill:url(#SVGID_1_);}
	.st12{fill:#FBBC05;}
	.st13{fill:#34A853;}
	.st14{enable-background:new    ;}
	.st15{fill:#333333;}
</style>
<text x="342" y="83" font-family="Helvetica" font-size="71" fill="#333333">FOLLOW ON</text>
<text x="820" y="227" font-family="Helvetica" font-size="130" fill="#333333" style="display:nonex">News</text>
<g>
	<path class="st0" d="M249.8,179.3c0,4.2-3.4,7.6-7.7,7.6H80c-4.2,0-7.7-3.4-7.7-7.6V20.2c0-4.2,3.4-7.6,7.7-7.6h162.2
		c4.2,0,7.7,3.4,7.7,7.6L249.8,179.3L249.8,179.3z"/>
	<polygon class="st1" points="249.8,53.5 189.1,45.7 249.8,62 	"/>
	<path class="st1" d="M164,20.9L72,62l101.7-37v-0.1C171.9,21.1,167.6,19.3,164,20.9L164,20.9z"/>
	<path class="st2" d="M242.2,12.6H80c-4.2,0-7.7,3.4-7.7,7.6v1.7c0-4.2,3.4-7.6,7.7-7.6h162.2c4.2,0,7.7,3.4,7.7,7.6v-1.7
		C249.8,16.1,246.4,12.6,242.2,12.6z"/>
	<path class="st3" d="M111.7,174.4c-1.1,4.1,1.1,8.3,4.9,9.3L266.7,224c3.8,1,7.7-1.5,8.8-5.6l35.4-132c1.1-4.1-1.1-8.3-4.9-9.3
		L155.9,36.8c-3.8-1-7.7,1.5-8.8,5.6L111.7,174.4z"/>
	<polygon class="st4" points="277.1,133.6 285,181.5 277.1,211 	"/>
	<polygon class="st4" points="189.8,47.7 196.8,49.6 201.2,79.2 	"/>
	<path class="st2" d="M306.1,77.2L155.9,36.8c-3.8-1-7.7,1.5-8.8,5.6l-35.4,132c-0.1,0.2-0.1,0.4-0.1,0.7l35.1-131
		c1.1-4.1,5.1-6.6,8.8-5.6l150.2,40.4c3.6,1,5.7,4.7,5,8.6l0.3-1C312,82.4,309.9,78.2,306.1,77.2L306.1,77.2z"/>
	<path class="st5" d="M230,158.1c1.4,4-0.4,8.3-4,9.6L67.5,225.4c-3.7,1.3-7.8-0.8-9.3-4.8L11.5,92.2c-1.4-4,0.4-8.3,4-9.6L174,24.9
		c3.7-1.3,7.8,0.8,9.3,4.8L230,158.1z"/>
	<path class="st2" d="M12.1,93.8c-1.4-4,0.4-8.3,4-9.6l158.5-57.7c3.6-1.3,7.7,0.8,9.2,4.7l-0.5-1.5c-1.4-4-5.6-6.1-9.3-4.8
		L15.5,82.6c-3.7,1.3-5.5,5.7-4,9.6l46.7,128.5c0,0,0,0.1,0.1,0.1L12.1,93.8z"/>
	<path class="st6" d="M277.1,250.6c0,4.2-3.5,7.7-7.7,7.7H52.8c-4.2,0-7.7-3.5-7.7-7.7V86.8c0-4.2,3.5-7.7,7.7-7.7h216.7
		c4.2,0,7.7,3.5,7.7,7.7L277.1,250.6L277.1,250.6z"/>
	<path class="st7" d="M235.7,144h-64.8v-17.1h64.8c1.9,0,3.4,1.5,3.4,3.4v10.2C239.1,142.5,237.6,144,235.7,144z M235.7,208.8h-64.8
		v-17.1h64.8c1.9,0,3.4,1.5,3.4,3.4v10.2C239.1,207.3,237.6,208.8,235.7,208.8z M246,176.4h-75.1v-17.1H246c1.9,0,3.4,1.5,3.4,3.4
		V173C249.4,174.9,247.9,176.4,246,176.4L246,176.4z"/>
	<path class="st8" d="M269.4,256.6H52.8c-4.2,0-7.7-3.5-7.7-7.7v1.7c0,4.2,3.5,7.7,7.7,7.7h216.7c4.2,0,7.7-3.5,7.7-7.7v-1.7
		C277.1,253.2,273.7,256.6,269.4,256.6z"/>
	<path class="st2" d="M52.8,80.9h216.7c4.2,0,7.7,3.5,7.7,7.7v-1.7c0-4.2-3.5-7.7-7.7-7.7H52.8c-4.2,0-7.7,3.5-7.7,7.7v1.7
		C45.1,84.3,48.5,80.9,52.8,80.9L52.8,80.9z"/>
	<path class="st7" d="M112.9,161.1v15.4H135c-1.8,9.4-10.1,16.2-22.1,16.2c-13.4,0-24.3-11.3-24.3-24.7s10.9-24.7,24.3-24.7
		c6,0,11.4,2.1,15.7,6.1l0,0l11.7-11.7c-7.1-6.6-16.4-10.7-27.4-10.7C90.3,127,72,145.3,72,167.9s18.3,40.9,40.9,40.9
		c23.6,0,39.2-16.6,39.2-40c0-2.7-0.2-5.3-0.6-7.8L112.9,161.1L112.9,161.1z"/>
	<g class="st9">
		<path class="st10" d="M113.3,176.5v1.7H135c0.2-0.6,0.3-1.1,0.4-1.7H113.3z"/>
		<path class="st10" d="M113.3,208.8c-22.3,0-40.5-17.9-40.9-40.1c0,0.3,0,0.6,0,0.9c0,22.6,18.3,40.9,40.9,40.9
			c23.6,0,39.2-16.6,39.2-40c0-0.2,0-0.4,0-0.6C152,192.8,136.6,208.8,113.3,208.8z M129,149.3c-4.3-4.1-9.7-6.1-15.7-6.1
			c-13.4,0-24.3,11.3-24.3,24.7c0,0.3,0,0.6,0,0.9c0.5-13,11.1-23.9,24.2-23.9c6,0,11.4,2.1,15.7,6.1l0,0l12.5-12.5
			c-0.3-0.3-0.6-0.5-0.9-0.8L129,149.3L129,149.3z"/>
	</g>
	<path class="st8" d="M239.1,142.3v-1.7c0,1.9-1.5,3.4-3.4,3.4h-64.8v1.7h64.8C237.6,145.7,239.1,144.2,239.1,142.3L239.1,142.3z
		 M235.7,208.8h-64.8v1.7h64.8c1.9,0,3.4-1.5,3.4-3.4v-1.7C239.1,207.3,237.6,208.8,235.7,208.8z M246,176.4h-75.1v1.7H246
		c1.9,0,3.4-1.5,3.4-3.4V173C249.4,174.9,247.9,176.4,246,176.4L246,176.4z"/>
	
		<radialGradient id="SVGID_1_" cx="78.666" cy="5360.2637" r="292.0192" gradientTransform="matrix(1 0 0 -1 0 5392.7998)" gradientUnits="userSpaceOnUse">
		<stop  offset="0" style="stop-color:#FFFFFF;stop-opacity:0.1"/>
		<stop  offset="1" style="stop-color:#FFFFFF;stop-opacity:0"/>
	</radialGradient>
	<path class="st11" d="M306.1,77.2L249.8,62V20.2c0-4.2-3.4-7.6-7.7-7.6H80c-4.2,0-7.7,3.4-7.7,7.6v41.6L15.4,82.5
		c-3.7,1.3-5.5,5.7-4,9.6L45,184.5v66c0,4.2,3.5,7.7,7.7,7.7h216.7c4.2,0,7.7-3.5,7.7-7.7v-37.9l33.8-126.3
		C312,82.4,309.9,78.2,306.1,77.2L306.1,77.2z"/>
</g>
<g>
	<path class="st3" d="M528.8,189.4c0,22-17.2,38.1-38.3,38.1s-38.3-16.2-38.3-38.1c0-22.1,17.2-38.1,38.3-38.1
		C511.6,151.3,528.8,167.3,528.8,189.4z M512,189.4c0-13.7-10-23.1-21.5-23.1s-21.5,9.4-21.5,23.1c0,13.6,10,23.1,21.5,23.1
		S512,203,512,189.4z"/>
	<path class="st12" d="M611.3,189.4c0,22-17.2,38.1-38.3,38.1s-38.3-16.2-38.3-38.1c0-22.1,17.2-38.1,38.3-38.1
		S611.3,167.3,611.3,189.4z M594.5,189.4c0-13.7-10-23.1-21.5-23.1s-21.5,9.4-21.5,23.1c0,13.6,10,23.1,21.5,23.1
		S594.5,203,594.5,189.4z"/>
	<path class="st6" d="M690.4,153.6v68.5c0,28.2-16.6,39.7-36.2,39.7c-18.5,0-29.6-12.4-33.8-22.5l14.6-6.1c2.6,6.2,9,13.5,19.2,13.5
		c12.6,0,20.4-7.8,20.4-22.4v-5.5H674c-3.7,4.6-11,8.7-20.1,8.7c-19.1,0-36.5-16.6-36.5-38c0-21.5,17.5-38.3,36.5-38.3
		c9.1,0,16.3,4,20.1,8.5h0.6v-6.2L690.4,153.6L690.4,153.6z M675.7,189.6c0-13.4-9-23.2-20.4-23.2c-11.6,0-21.2,9.8-21.2,23.2
		c0,13.3,9.7,23,21.2,23C666.7,212.5,675.7,202.9,675.7,189.6z"/>
	<path class="st13" d="M716.6,113.5v111.8h-16.3V113.5H716.6z"/>
	<path class="st3" d="M780.3,202l13,8.7c-4.2,6.2-14.3,16.9-31.8,16.9c-21.7,0-37.8-16.7-37.8-38.1c0-22.7,16.3-38.1,36-38.1
		c19.8,0,29.5,15.8,32.6,24.3l1.7,4.3l-51,21.1c3.9,7.7,10,11.6,18.5,11.6C770,212.5,775.9,208.3,780.3,202L780.3,202z M740.3,188.3
		l34.1-14.2c-1.9-4.8-7.5-8.1-14.2-8.1C751.7,166,739.8,173.5,740.3,188.3z"/>
	<path class="st6" d="M390.4,179.5v-16.2h54.5c0.5,2.8,0.8,6.2,0.8,9.8c0,12.1-3.3,27.2-14,37.8c-10.4,10.8-23.7,16.6-41.3,16.6
		c-32.6,0-60.1-26.6-60.1-59.2s27.4-59.2,60.1-59.2c18.1,0,30.9,7.1,40.6,16.3l-11.4,11.4c-6.9-6.5-16.3-11.6-29.2-11.6
		c-23.8,0-42.5,19.2-42.5,43s18.6,43,42.5,43c15.5,0,24.3-6.2,29.9-11.8c4.6-4.6,7.6-11.1,8.8-20L390.4,179.5z"/>
</g>
</svg>
