<svg version="1.1" id="Layer_1" xmlns="http://www.w3.org/2000/svg" x="0" y="0" viewBox="0 0 2165.7 279.5" xml:space="preserve">
  <style>
    .st2{opacity:.2;enable-background:new;fill:#fff}.st3{fill:#ea4335}.st6{fill:#4285f4}.st7{fill:#fff}.st8{opacity:.2;enable-background:new}.st10,.st8{fill:#1a237e}
  </style>
  <text x="342" y="83" font-family="Helvetica" font-size="71" fill="#333">FOLLOW ON</text>
  <text x="820" y="227" font-family="Helvetica" font-size="130" fill="#333" display="nonex">News</text>
  <path d="M249.8 179.3c0 4.2-3.4 7.6-7.7 7.6H80c-4.2 0-7.7-3.4-7.7-7.6V20.2c0-4.2 3.4-7.6 7.7-7.6h162.2c4.2 0 7.7 3.4 7.7 7.6l-.1 159.1z" fill="#0c9d58"/>
  <path d="m249.8 53.5-60.7-7.8L249.8 62zM164 20.9 72 62l101.7-37v-.1c-1.8-3.8-6.1-5.6-9.7-4z" opacity=".2" fill="#004d40"/>
  <path class="st2" d="M242.2 12.6H80c-4.2 0-7.7 3.4-7.7 7.6v1.7c0-4.2 3.4-7.6 7.7-7.6h162.2c4.2 0 7.7 3.4 7.7 7.6v-1.7c-.1-4.1-3.5-7.6-7.7-7.6z"/>
  <path class="st3" d="M111.7 174.4c-1.1 4.1 1.1 8.3 4.9 9.3L266.7 224c3.8 1 7.7-1.5 8.8-5.6l35.4-132c1.1-4.1-1.1-8.3-4.9-9.3L155.9 36.8c-3.8-1-7.7 1.5-8.8 5.6l-35.4 132z"/>
  <path d="m277.1 133.6 7.9 47.9-7.9 29.5zm-87.3-85.9 7 1.9 4.4 29.6z" opacity=".2" fill="#3e2723"/>
  <path class="st2" d="M306.1 77.2 155.9 36.8c-3.8-1-7.7 1.5-8.8 5.6l-35.4 132c-.1.2-.1.4-.1.7l35.1-131c1.1-4.1 5.1-6.6 8.8-5.6l150.2 40.4c3.6 1 5.7 4.7 5 8.6l.3-1c1-4.1-1.1-8.3-4.9-9.3z"/>
  <path d="M230 158.1c1.4 4-.4 8.3-4 9.6L67.5 225.4c-3.7 1.3-7.8-.8-9.3-4.8L11.5 92.2c-1.4-4 .4-8.3 4-9.6L174 24.9c3.7-1.3 7.8.8 9.3 4.8L230 158.1z" fill="#ffc107"/>
  <path class="st2" d="M12.1 93.8c-1.4-4 .4-8.3 4-9.6l158.5-57.7c3.6-1.3 7.7.8 9.2 4.7l-.5-1.5c-1.4-4-5.6-6.1-9.3-4.8L15.5 82.6c-3.7 1.3-5.5 5.7-4 9.6l46.7 128.5s0 .1.1.1l-46.2-127z"/>
  <path class="st6" d="M277.1 250.6c0 4.2-3.5 7.7-7.7 7.7H52.8c-4.2 0-7.7-3.5-7.7-7.7V86.8c0-4.2 3.5-7.7 7.7-7.7h216.7c4.2 0 7.7 3.5 7.7 7.7l-.1 163.8z"/>
  <path class="st7" d="M235.7 144h-64.8v-17.1h64.8c1.9 0 3.4 1.5 3.4 3.4v10.2c0 2-1.5 3.5-3.4 3.5zm0 64.8h-64.8v-17.1h64.8c1.9 0 3.4 1.5 3.4 3.4v10.2c0 2-1.5 3.5-3.4 3.5zm10.3-32.4h-75.1v-17.1H246c1.9 0 3.4 1.5 3.4 3.4V173c0 1.9-1.5 3.4-3.4 3.4z"/>
  <path class="st8" d="M269.4 256.6H52.8c-4.2 0-7.7-3.5-7.7-7.7v1.7c0 4.2 3.5 7.7 7.7 7.7h216.7c4.2 0 7.7-3.5 7.7-7.7v-1.7c-.1 4.3-3.5 7.7-7.8 7.7z"/>
  <path class="st2" d="M52.8 80.9h216.7c4.2 0 7.7 3.5 7.7 7.7v-1.7c0-4.2-3.5-7.7-7.7-7.7H52.8c-4.2 0-7.7 3.5-7.7 7.7v1.7c0-4.3 3.4-7.7 7.7-7.7z"/>
  <path class="st7" d="M112.9 161.1v15.4H135c-1.8 9.4-10.1 16.2-22.1 16.2-13.4 0-24.3-11.3-24.3-24.7s10.9-24.7 24.3-24.7c6 0 11.4 2.1 15.7 6.1l11.7-11.7c-7.1-6.6-16.4-10.7-27.4-10.7-22.6 0-40.9 18.3-40.9 40.9s18.3 40.9 40.9 40.9c23.6 0 39.2-16.6 39.2-40 0-2.7-.2-5.3-.6-7.8l-38.6.1z"/>
  <g opacity=".2">
    <path class="st10" d="M113.3 176.5v1.7H135c.2-.6.3-1.1.4-1.7h-22.1z"/>
    <path class="st10" d="M113.3 208.8c-22.3 0-40.5-17.9-40.9-40.1v.9c0 22.6 18.3 40.9 40.9 40.9 23.6 0 39.2-16.6 39.2-40v-.6c-.5 22.9-15.9 38.9-39.2 38.9zm15.7-59.5c-4.3-4.1-9.7-6.1-15.7-6.1-13.4 0-24.3 11.3-24.3 24.7v.9c.5-13 11.1-23.9 24.2-23.9 6 0 11.4 2.1 15.7 6.1l12.5-12.5c-.3-.3-.6-.5-.9-.8L129 149.3z"/>
  </g>
  <path class="st8" d="M239.1 142.3v-1.7c0 1.9-1.5 3.4-3.4 3.4h-64.8v1.7h64.8c1.9 0 3.4-1.5 3.4-3.4zm-3.4 66.5h-64.8v1.7h64.8c1.9 0 3.4-1.5 3.4-3.4v-1.7c0 1.9-1.5 3.4-3.4 3.4zm10.3-32.4h-75.1v1.7H246c1.9 0 3.4-1.5 3.4-3.4V173c0 1.9-1.5 3.4-3.4 3.4z"/>
  <radialGradient id="SVGID_1_" cx="78.666" cy="5360.264" r="292.019" gradientTransform="matrix(1 0 0 -1 0 5392.8)" gradientUnits="userSpaceOnUse">
    <stop offset="0" stop-color="#fff" stop-opacity=".1"/>
    <stop offset="1" stop-color="#fff" stop-opacity="0"/>
  </radialGradient>
  <path d="M306.1 77.2 249.8 62V20.2c0-4.2-3.4-7.6-7.7-7.6H80c-4.2 0-7.7 3.4-7.7 7.6v41.6L15.4 82.5c-3.7 1.3-5.5 5.7-4 9.6L45 184.5v66c0 4.2 3.5 7.7 7.7 7.7h216.7c4.2 0 7.7-3.5 7.7-7.7v-37.9l33.8-126.3c1.1-3.9-1-8.1-4.8-9.1z" fill="url(#SVGID_1_)"/>
  <path class="st3" d="M528.8 189.4c0 22-17.2 38.1-38.3 38.1s-38.3-16.2-38.3-38.1c0-22.1 17.2-38.1 38.3-38.1 21.1 0 38.3 16 38.3 38.1zm-16.8 0c0-13.7-10-23.1-21.5-23.1s-21.5 9.4-21.5 23.1c0 13.6 10 23.1 21.5 23.1S512 203 512 189.4z"/>
  <path d="M611.3 189.4c0 22-17.2 38.1-38.3 38.1s-38.3-16.2-38.3-38.1c0-22.1 17.2-38.1 38.3-38.1s38.3 16 38.3 38.1zm-16.8 0c0-13.7-10-23.1-21.5-23.1s-21.5 9.4-21.5 23.1c0 13.6 10 23.1 21.5 23.1s21.5-9.5 21.5-23.1z" fill="#fbbc05"/>
  <path class="st6" d="M690.4 153.6v68.5c0 28.2-16.6 39.7-36.2 39.7-18.5 0-29.6-12.4-33.8-22.5l14.6-6.1c2.6 6.2 9 13.5 19.2 13.5 12.6 0 20.4-7.8 20.4-22.4v-5.5h-.6c-3.7 4.6-11 8.7-20.1 8.7-19.1 0-36.5-16.6-36.5-38 0-21.5 17.5-38.3 36.5-38.3 9.1 0 16.3 4 20.1 8.5h.6v-6.2l15.8.1zm-14.7 36c0-13.4-9-23.2-20.4-23.2-11.6 0-21.2 9.8-21.2 23.2 0 13.3 9.7 23 21.2 23 11.4-.1 20.4-9.7 20.4-23z"/>
  <path d="M716.6 113.5v111.8h-16.3V113.5h16.3z" fill="#34a853"/>
  <path class="st3" d="m780.3 202 13 8.7c-4.2 6.2-14.3 16.9-31.8 16.9-21.7 0-37.8-16.7-37.8-38.1 0-22.7 16.3-38.1 36-38.1 19.8 0 29.5 15.8 32.6 24.3l1.7 4.3-51 21.1c3.9 7.7 10 11.6 18.5 11.6 8.5-.2 14.4-4.4 18.8-10.7zm-40-13.7 34.1-14.2c-1.9-4.8-7.5-8.1-14.2-8.1-8.5 0-20.4 7.5-19.9 22.3z"/>
  <path class="st6" d="M390.4 179.5v-16.2h54.5c.5 2.8.8 6.2.8 9.8 0 12.1-3.3 27.2-14 37.8-10.4 10.8-23.7 16.6-41.3 16.6-32.6 0-60.1-26.6-60.1-59.2s27.4-59.2 60.1-59.2c18.1 0 30.9 7.1 40.6 16.3l-11.4 11.4c-6.9-6.5-16.3-11.6-29.2-11.6-23.8 0-42.5 19.2-42.5 43s18.6 43 42.5 43c15.5 0 24.3-6.2 29.9-11.8 4.6-4.6 7.6-11.1 8.8-20l-38.7.1z"/>
</svg>
